<?xml version="1.0" encoding="UTF-8"?>
<!-- SPDX-FileCopyrightText : © 2025 TU Wien <vadl@tuwien.ac.at> -->
<!-- SPDX-License-Identifier: GPL-3.0-or-later -->
<!-- -->
<!-- This program is free software: you can redistribute it and/or modify -->
<!-- it under the terms of the GNU General Public License as published by -->
<!-- the Free Software Foundation, either version 3 of the License, or -->
<!-- (at your option) any later version. -->
<!-- -->
<!-- This program is distributed in the hope that it will be useful, -->
<!-- but WITHOUT ANY WARRANTY; without even the implied warranty of -->
<!-- MERCHANTABILITY or FITNESS FOR A PARTICULAR PURPOSE.  See the -->
<!-- GNU General Public License for more details. -->
<!-- -->
<!-- You should have received a copy of the GNU General Public License -->
<!-- along with this program.  If not, see <https://www.gnu.org/licenses/>. -->

<svg id="Layer_2" data-name="Layer 2" xmlns="http://www.w3.org/2000/svg" xmlns:xlink="http://www.w3.org/1999/xlink"
     viewBox="0 0 200.5 39.39">
    <defs>
        <style>
            .cls-1 {
            fill: url(#linear-gradient-8);
            }

            .cls-2 {
            fill: url(#linear-gradient-7);
            }

            .cls-3 {
            fill: url(#linear-gradient-5);
            }

            .cls-4 {
            fill: url(#linear-gradient-6);
            }

            .cls-5 {
            fill: url(#linear-gradient-9);
            }

            .cls-6 {
            fill: url(#linear-gradient-4);
            }

            .cls-7 {
            fill: url(#linear-gradient-3);
            }

            .cls-8 {
            fill: url(#linear-gradient-2);
            }

            .cls-9 {
            fill: url(#linear-gradient);
            }

            .cls-10 {
            fill: url(#linear-gradient-10);
            }

            .cls-11 {
            fill: url(#linear-gradient-11);
            }

            .cls-12 {
            fill: url(#linear-gradient-12);
            }

            .cls-13 {
            fill: url(#linear-gradient-13);
            }

            .cls-14 {
            fill: url(#linear-gradient-14);
            }

            .cls-15 {
            fill: url(#linear-gradient-15);
            }
        </style>
        <linearGradient id="linear-gradient" x1="54.86" y1="19.37" x2="76.16" y2="19.37" gradientUnits="userSpaceOnUse">
            <stop offset="0" stop-color="#4157a6"/>
            <stop offset="1" stop-color="#5862ac"/>
        </linearGradient>
        <linearGradient id="linear-gradient-2" x1="78.27" y1="24.21" x2="94.57" y2="24.21"
                        xlink:href="#linear-gradient"/>
        <linearGradient id="linear-gradient-3" x1="95.4" y1="21.62" x2="111.14" y2="21.62"
                        xlink:href="#linear-gradient"/>
        <linearGradient id="linear-gradient-4" x1="113.06" y1="21.51" x2="128.35" y2="21.51"
                        xlink:href="#linear-gradient"/>
        <linearGradient id="linear-gradient-5" x1="126.94" y1="19.37" x2="148.24" y2="19.37"
                        xlink:href="#linear-gradient"/>
        <linearGradient id="linear-gradient-6" x1="142.28" y1="19.37" x2="164.1" y2="19.37"
                        xlink:href="#linear-gradient"/>
        <linearGradient id="linear-gradient-7" x1="165.16" y1="19.37" x2="184.74" y2="19.37"
                        xlink:href="#linear-gradient"/>
        <linearGradient id="linear-gradient-8" x1="186.27" x2="200.5" xlink:href="#linear-gradient"/>
        <linearGradient id="linear-gradient-9" x1="38.45" y1="4.48" x2="46.34" y2="4.48"
                        gradientTransform="translate(4.1 -14.25) rotate(20.03)" xlink:href="#linear-gradient"/>
        <linearGradient id="linear-gradient-10" x1="0" y1="4.48" x2="7.12" y2="4.48"
                        gradientTransform="translate(7.6 .42) rotate(83.29)" xlink:href="#linear-gradient"/>
        <linearGradient id="linear-gradient-11" x1="2.18" y1="30.46" x2="9.34" y2="30.46"
                        gradientTransform="translate(3.84 -.48) rotate(7.17)" xlink:href="#linear-gradient"/>
        <linearGradient id="linear-gradient-12" x1="36.68" y1="30.95" x2="43.97" y2="30.95"
                        gradientTransform="translate(64.35 -13.85) rotate(80.69)" xlink:href="#linear-gradient"/>
        <linearGradient id="linear-gradient-13" x1="18.64" y1="14.16" x2="20.41" y2="14.16"
                        xlink:href="#linear-gradient"/>
        <linearGradient id="linear-gradient-14" x1="1.84" y1="19.7" x2="44.88" y2="19.7" xlink:href="#linear-gradient"/>
        <linearGradient id="linear-gradient-15" x1="28.3" y1="14.2" x2="30.07" y2="14.2" xlink:href="#linear-gradient"/>
    </defs>
    <g id="Layer_1-2" data-name="Layer 1">
        <g>
            <g>
                <path class="cls-9"
                      d="M65.54,29.44c-1.54,0-2.96-.25-4.25-.75-1.3-.5-2.43-1.21-3.39-2.11s-1.71-1.97-2.24-3.2-.79-2.56-.79-4,.26-2.8.79-4.02c.53-1.21,1.27-2.28,2.24-3.18.96-.91,2.09-1.61,3.38-2.11,1.29-.5,2.7-.75,4.24-.75s2.95.25,4.24.74c1.29.49,2.41,1.19,3.38,2.1.96.91,1.71,1.97,2.24,3.2s.79,2.57.79,4.03-.26,2.79-.79,4.02c-.53,1.23-1.28,2.3-2.24,3.21s-2.09,1.61-3.38,2.1c-1.29.49-2.69.74-4.21.74ZM65.51,25.63c.87,0,1.67-.15,2.41-.46.73-.31,1.38-.74,1.93-1.31.56-.57.99-1.22,1.29-1.97.31-.75.46-1.59.46-2.52s-.15-1.77-.46-2.52c-.31-.75-.74-1.41-1.29-1.97-.56-.57-1.2-1-1.93-1.31-.73-.31-1.53-.46-2.41-.46s-1.68.15-2.42.46c-.74.31-1.39.74-1.93,1.31-.55.57-.97,1.22-1.28,1.97s-.46,1.59-.46,2.52.15,1.77.46,2.52c.31.75.73,1.41,1.28,1.97.55.57,1.19,1,1.93,1.31.74.31,1.55.46,2.42.46Z"/>
                <path class="cls-8"
                      d="M78.27,34.5V14.14h4.14v3.06l-.08,4.45.28,4.42v8.42h-4.34ZM87.09,29.32c-1.24,0-2.34-.28-3.28-.83-.95-.56-1.68-1.4-2.21-2.54-.53-1.14-.79-2.58-.79-4.32s.25-3.21.75-4.34c.5-1.13,1.23-1.97,2.18-2.53s2.07-.83,3.35-.83c1.43,0,2.7.32,3.82.96,1.12.64,2.01,1.53,2.67,2.68.66,1.15.99,2.5.99,4.06s-.33,2.93-.99,4.07c-.66,1.14-1.55,2.03-2.67,2.67-1.12.64-2.4.96-3.82.96ZM86.36,25.76c.72,0,1.37-.17,1.93-.5.57-.33,1.02-.81,1.36-1.43.34-.62.51-1.36.51-2.21s-.17-1.61-.51-2.22c-.34-.61-.8-1.08-1.36-1.4-.57-.32-1.21-.49-1.93-.49s-1.37.16-1.95.49c-.58.32-1.03.79-1.38,1.4s-.51,1.35-.51,2.22.17,1.59.51,2.21.8,1.1,1.38,1.43c.57.33,1.22.5,1.95.5Z"/>
                <path class="cls-7"
                      d="M103.91,29.32c-1.71,0-3.2-.33-4.48-1s-2.27-1.58-2.97-2.74c-.71-1.16-1.06-2.48-1.06-3.96s.34-2.81,1.01-3.98,1.62-2.08,2.84-2.74,2.58-.99,4.1-.99,2.79.32,3.96.95c1.18.63,2.11,1.52,2.79,2.67.69,1.15,1.03,2.53,1.03,4.14,0,.17,0,.36-.03.57s-.04.41-.06.6h-12.15v-2.53h9.87l-1.7.75c.02-.78-.13-1.46-.44-2.03-.32-.57-.75-1.02-1.31-1.35-.56-.32-1.21-.49-1.95-.49s-1.39.16-1.96.49-1.01.78-1.32,1.36c-.32.58-.47,1.27-.47,2.07v.67c0,.83.18,1.56.56,2.17.37.61.88,1.08,1.53,1.4.65.32,1.43.49,2.34.49.78,0,1.47-.12,2.07-.36s1.15-.6,1.65-1.08l2.31,2.5c-.69.78-1.55,1.38-2.59,1.79-1.04.42-2.23.63-3.59.63Z"/>
                <path class="cls-6"
                      d="M113.06,29.1v-14.96h4.14v4.14l-.78-1.25c.54-1,1.31-1.77,2.31-2.31,1-.54,2.14-.81,3.42-.81,1.19,0,2.25.24,3.18.71.94.47,1.67,1.2,2.21,2.17.54.97.81,2.22.81,3.74v8.56h-4.34v-7.9c0-1.21-.26-2.09-.79-2.67-.53-.57-1.27-.86-2.24-.86-.69,0-1.3.15-1.85.44-.55.3-.97.73-1.28,1.31-.31.57-.46,1.33-.46,2.28v7.4h-4.34Z"/>
                <path class="cls-3"
                      d="M135.37,29.1l-8.43-19.46h4.89l7.34,17.24h-2.86l7.45-17.24h4.48l-8.43,19.46h-4.45Z"/>
                <path class="cls-4"
                      d="M142.28,29.1l8.65-19.46h4.45l8.73,19.46h-4.73l-7.15-17.18h1.81l-7.15,17.18h-4.62ZM146.64,24.93l1.14-3.42h10.07l1.17,3.42h-12.37Z"/>
                <path class="cls-2"
                      d="M165.16,29.1V9.64h8.84c2.11,0,3.98.4,5.59,1.21,1.61.81,2.87,1.94,3.78,3.39.91,1.46,1.36,3.17,1.36,5.13s-.46,3.67-1.36,5.13-2.17,2.59-3.78,3.39c-1.61.81-3.48,1.21-5.59,1.21h-8.84ZM169.69,25.43h4.09c1.3,0,2.42-.25,3.38-.74.95-.49,1.7-1.2,2.22-2.11.53-.92.79-1.99.79-3.21s-.26-2.32-.79-3.23-1.27-1.61-2.22-2.1c-.96-.49-2.08-.74-3.38-.74h-4.09v12.12Z"/>
                <path class="cls-1" d="M186.27,29.1V9.64h4.53v15.79h9.71v3.67h-14.24Z"/>
            </g>
            <g>
                <rect class="cls-5" x="39.07" y="1.16" width="6.64" height="6.64" rx="1.12" ry="1.12"
                      transform="translate(1.03 14.79) rotate(-20.03)"/>
                <rect class="cls-10" x=".24" y="1.16" width="6.64" height="6.64" rx="1.12" ry="1.12"
                      transform="translate(-1.31 7.5) rotate(-83.29)"/>
                <rect class="cls-11" x="2.44" y="27.14" width="6.64" height="6.64" rx="1.12" ry="1.12"
                      transform="translate(-3.75 .96) rotate(-7.17)"/>
                <rect class="cls-12" x="37" y="27.63" width="6.64" height="6.64" rx="1.12" ry="1.12"
                      transform="translate(3.26 65.74) rotate(-80.69)"/>
                <circle class="cls-13" cx="19.52" cy="14.16" r=".89"/>
                <path class="cls-14"
                      d="M44.84,9.5c-.09-.27-1.02-.21-1.3-.2-5.37.34-3.08,7.76-6.12,10.46-1.02.91-2.78,1.46-4.09.95-1.09-.42-.79-1.31-.59-2.25.37-1.76,1.08-3.44,1.47-5.21.72-3.31.41-6.22-1.76-8.92-4.66-5.8-13.54-5.77-18.26-.04-2.46,2.98-2.61,6-1.67,9.64.42,1.64,1.33,3.81,1.42,5.45.04.65.08,1-.57,1.28-1.6.7-3.9-.61-4.77-1.97-1.46-2.29-1.1-7.8-3.65-9-.69-.32-1.9-.46-2.65-.39-.17.02-.29.05-.39.2-.29.44.35.8.6,1.09,2.67,3.15-.16,8.34,2.94,11.9,1.78,2.06,5.77,2.84,8.36,2.52.35-.04,1.03-.27,1.3-.26.81.02.61,1,.52,1.54-.45,2.66-2.33,7.36-4.87,8.63-1.5.75-4.42.22-5.21.2-.78-.03-.56.89-.2,1.46,2.61,4.07,7.78,3.21,10.9.25,2.27-2.15,3.01-4.25,4.43-6.88.69-1.28,1.96-2.11,3.48-1.69,1.29.36,1.51,1.65,2.03,2.7,1.31,2.67,3.49,6.1,6.17,7.53,2.05,1.1,4.49,1.27,6.47-.06.57-.38,2.13-1.81,2.19-2.49.09-.9-.7-.6-1.56-.61-2.23-.04-4.75-.51-6.28-2.24-1.4-1.59-2.41-4.81-2.56-6.9-.03-.47-.08-1.44.57-1.47,4.82,1.33,10.7-.15,11.66-5.71.5-2.9-.66-5.87,1.36-8.4.29-.36.8-.61.62-1.13ZM18.54,16.93c-1.36,0-2.47-1.3-2.47-2.9s1.1-2.9,2.47-2.9,2.47,1.3,2.47,2.9-1.11,2.9-2.47,2.9ZM28.21,16.95c-1.36,0-2.46-1.29-2.46-2.89s1.1-2.89,2.46-2.89,2.46,1.29,2.46,2.89-1.1,2.89-2.46,2.89Z"/>
                <circle class="cls-15" cx="29.19" cy="14.2" r=".88"/>
            </g>
        </g>
    </g>
</svg>