<?xml version="1.0" encoding="UTF-8"?>
<!-- SPDX-FileCopyrightText : © 2025 TU Wien <vadl@tuwien.ac.at> -->
<!-- SPDX-License-Identifier: GPL-3.0-or-later -->
<!-- -->
<!-- This program is free software: you can redistribute it and/or modify -->
<!-- it under the terms of the GNU General Public License as published by -->
<!-- the Free Software Foundation, either version 3 of the License, or -->
<!-- (at your option) any later version. -->
<!-- -->
<!-- This program is distributed in the hope that it will be useful, -->
<!-- but WITHOUT ANY WARRANTY; without even the implied warranty of -->
<!-- MERCHANTABILITY or FITNESS FOR A PARTICULAR PURPOSE.  See the -->
<!-- GNU General Public License for more details. -->
<!-- -->
<!-- You should have received a copy of the GNU General Public License -->
<!-- along with this program.  If not, see <https://www.gnu.org/licenses/>. -->

<svg id="Layer_2" data-name="Layer 2" xmlns="http://www.w3.org/2000/svg" viewBox="0 0 663.61 130.33">
    <defs>
        <style>
            .cls-1 {
            fill: #fff;
            }
        </style>
    </defs>
    <g id="Layer_1-2" data-name="Layer 1">
        <g>
            <g>
                <path class="cls-1"
                      d="M217.1,97.38c-5.09,0-9.78-.83-14.07-2.48-4.29-1.65-8.03-3.99-11.22-6.99s-5.66-6.53-7.4-10.58-2.62-8.46-2.62-13.25.88-9.28,2.62-13.29c1.75-4.02,4.22-7.53,7.4-10.53,3.19-3,6.91-5.33,11.18-6.99,4.26-1.66,8.94-2.48,14.03-2.48s9.76.81,14.03,2.44c4.26,1.63,7.99,3.94,11.18,6.94,3.19,3.01,5.66,6.53,7.41,10.58,1.75,4.05,2.62,8.49,2.62,13.34s-.87,9.21-2.62,13.29c-1.75,4.08-4.22,7.62-7.41,10.63s-6.91,5.32-11.18,6.94c-4.26,1.63-8.91,2.44-13.94,2.44ZM217.01,84.78c2.88,0,5.53-.51,7.96-1.52,2.42-1.01,4.55-2.45,6.39-4.32,1.84-1.87,3.26-4.05,4.28-6.53,1.01-2.48,1.52-5.26,1.52-8.32s-.5-5.84-1.52-8.33c-1.01-2.48-2.44-4.66-4.28-6.53-1.84-1.87-3.97-3.31-6.39-4.32-2.42-1.01-5.08-1.52-7.96-1.52s-5.55.51-8,1.52c-2.46,1.01-4.59,2.45-6.39,4.32-1.81,1.87-3.22,4.05-4.23,6.53s-1.52,5.26-1.52,8.33.51,5.84,1.52,8.32c1.01,2.48,2.42,4.66,4.23,6.53,1.81,1.87,3.94,3.31,6.39,4.32,2.45,1.01,5.12,1.52,8,1.52Z"/>
                <path class="cls-1"
                      d="M259.23,114.12V46.79h13.71v10.12l-.28,14.72.92,14.63v27.87h-14.35ZM288.39,97.01c-4.11,0-7.73-.92-10.86-2.76-3.13-1.84-5.56-4.65-7.31-8.42-1.75-3.77-2.62-8.54-2.62-14.31s.83-10.61,2.48-14.35c1.65-3.74,4.06-6.53,7.22-8.37s6.85-2.76,11.08-2.76c4.72,0,8.94,1.06,12.65,3.17,3.71,2.12,6.66,5.08,8.83,8.88,2.17,3.8,3.26,8.28,3.26,13.43s-1.09,9.71-3.26,13.48c-2.18,3.77-5.12,6.72-8.83,8.83-3.71,2.12-7.93,3.17-12.65,3.17ZM286,85.24c2.39,0,4.52-.55,6.39-1.65,1.87-1.1,3.37-2.68,4.51-4.74,1.13-2.05,1.7-4.49,1.7-7.31s-.57-5.34-1.7-7.36c-1.14-2.02-2.64-3.57-4.51-4.65-1.87-1.07-4-1.61-6.39-1.61s-4.54.54-6.44,1.61c-1.9,1.07-3.42,2.62-4.56,4.65s-1.7,4.48-1.7,7.36.57,5.26,1.7,7.31,2.65,3.63,4.56,4.74c1.9,1.1,4.05,1.65,6.44,1.65Z"/>
                <path class="cls-1"
                      d="M344.05,97.01c-5.64,0-10.58-1.1-14.81-3.31s-7.51-5.23-9.84-9.06c-2.33-3.83-3.5-8.2-3.5-13.11s1.12-9.29,3.36-13.16c2.24-3.86,5.37-6.88,9.38-9.06s8.54-3.27,13.57-3.27,9.21,1.04,13.11,3.13c3.9,2.08,6.98,5.03,9.25,8.83,2.27,3.81,3.41,8.37,3.41,13.71,0,.55-.03,1.18-.09,1.89s-.12,1.36-.18,1.98h-40.2v-8.37h32.66l-5.61,2.48c.06-2.57-.43-4.81-1.47-6.71-1.04-1.9-2.48-3.39-4.32-4.46-1.84-1.07-3.99-1.61-6.44-1.61s-4.61.54-6.48,1.61-3.33,2.57-4.37,4.51c-1.04,1.93-1.56,4.22-1.56,6.85v2.21c0,2.76.61,5.15,1.84,7.18,1.23,2.02,2.91,3.57,5.06,4.65,2.15,1.07,4.72,1.61,7.73,1.61,2.57,0,4.86-.4,6.85-1.2,1.99-.8,3.82-1.99,5.47-3.59l7.64,8.28c-2.27,2.57-5.12,4.55-8.56,5.93-3.44,1.38-7.39,2.07-11.87,2.07Z"/>
                <path class="cls-1"
                      d="M374.31,96.28v-49.49h13.71v13.7l-2.58-4.14c1.78-3.31,4.33-5.86,7.64-7.63,3.31-1.78,7.08-2.67,11.31-2.67,3.92,0,7.43.78,10.53,2.35,3.1,1.56,5.53,3.95,7.31,7.18,1.78,3.22,2.67,7.34,2.67,12.37v28.33h-14.35v-26.12c0-3.99-.88-6.93-2.62-8.83-1.75-1.9-4.22-2.85-7.4-2.85-2.27,0-4.31.49-6.12,1.47-1.81.98-3.22,2.42-4.23,4.33-1.01,1.9-1.52,4.41-1.52,7.54v24.47h-14.35Z"/>
                <path class="cls-1"
                      d="M448.13,96.28l-27.88-64.39h16.19l24.29,57.03h-9.48l24.65-57.03h14.81l-27.88,64.39h-14.72Z"/>
                <path class="cls-1"
                      d="M470.98,96.28l28.61-64.39h14.72l28.88,64.39h-15.64l-23.64-56.85h5.98l-23.64,56.85h-15.27ZM485.42,82.48l3.77-11.31h33.3l3.86,11.31h-40.94Z"/>
                <path class="cls-1"
                      d="M546.69,96.28V31.88h29.25c6.99,0,13.16,1.33,18.49,4,5.33,2.67,9.5,6.41,12.51,11.22,3,4.82,4.51,10.47,4.51,16.97s-1.51,12.16-4.51,16.97-7.18,8.56-12.51,11.22c-5.33,2.67-11.5,4-18.49,4h-29.25ZM561.68,84.14h13.52c4.29,0,8.02-.81,11.18-2.44,3.16-1.63,5.61-3.95,7.36-6.99,1.75-3.03,2.62-6.58,2.62-10.62s-.88-7.67-2.62-10.67c-1.75-3-4.2-5.32-7.36-6.95-3.16-1.63-6.88-2.44-11.18-2.44h-13.52v40.11Z"/>
                <path class="cls-1" d="M616.51,96.28V31.88h14.99v52.25h32.11v12.14h-47.1Z"/>
            </g>
            <g>
                <rect class="cls-1" x="129.55" y="3.85" width="21.97" height="21.97" rx="1.12" ry="1.12"
                      transform="translate(3.42 49.03) rotate(-20.03)"/>
                <rect class="cls-1" x="1.09" y="3.85" width="21.97" height="21.97" rx="1.12" ry="1.12"
                      transform="translate(-4.07 25.09) rotate(-83.29)"/>
                <rect class="cls-1" x="8.35" y="89.78" width="21.97" height="21.97" rx="1.12" ry="1.12"
                      transform="translate(-12.42 3.2) rotate(-7.17)"/>
                <rect class="cls-1" x="122.7" y="91.41" width="21.97" height="21.97" rx="1.12" ry="1.12"
                      transform="translate(11.02 217.76) rotate(-80.69)"/>
                <circle class="cls-1" cx="64.88" cy="46.85" r="2.94"/>
                <path class="cls-1"
                      d="M148.63,31.43c-.31-.9-3.39-.71-4.3-.65-17.77,1.11-10.18,25.67-20.25,34.61-3.38,3-9.19,4.84-13.55,3.16-3.61-1.39-2.61-4.33-1.95-7.45,1.23-5.84,3.58-11.4,4.85-17.23,2.38-10.96,1.36-20.58-5.81-29.5-15.42-19.18-44.79-19.08-60.4-.14-8.13,9.86-8.62,19.85-5.53,31.88,1.4,5.43,4.39,12.59,4.7,18.03.13,2.16.27,3.3-1.87,4.24-5.29,2.32-12.9-2.02-15.77-6.53-4.82-7.58-3.65-25.82-12.08-29.78-2.28-1.07-6.28-1.52-8.77-1.3-.56.05-.97.17-1.3.67-.95,1.46,1.16,2.66,1.97,3.62,8.84,10.42-.51,27.59,9.72,39.38,5.9,6.8,19.07,9.4,27.65,8.33,1.16-.15,3.4-.88,4.29-.86,2.68.07,2.01,3.3,1.71,5.09-1.48,8.79-7.7,24.35-16.1,28.55-4.97,2.49-14.64.74-17.22.66-2.58-.08-1.86,2.95-.65,4.84,8.63,13.45,25.74,10.63,36.08.84,7.51-7.11,9.97-14.05,14.66-22.75,2.29-4.25,6.49-6.98,11.53-5.59,4.27,1.18,4.99,5.45,6.71,8.95,4.32,8.84,11.55,20.18,20.4,24.91,6.78,3.62,14.85,4.2,21.41-.18,1.9-1.27,7.04-6,7.26-8.24.29-2.97-2.33-1.98-5.17-2.03-7.37-.12-15.72-1.69-20.77-7.42-4.62-5.25-7.99-15.91-8.48-22.83-.11-1.55-.27-4.78,1.89-4.87,15.94,4.4,35.4-.51,38.59-18.9,1.66-9.6-2.19-19.42,4.5-27.8.95-1.19,2.65-2.01,2.06-3.73ZM61.62,56c-4.51,0-8.17-4.3-8.17-9.61s3.66-9.61,8.17-9.61,8.17,4.3,8.17,9.61-3.66,9.61-8.17,9.61ZM93.6,56.09c-4.49,0-8.12-4.28-8.12-9.56s3.64-9.56,8.12-9.56,8.12,4.28,8.12,9.56-3.64,9.56-8.12,9.56Z"/>
                <circle class="cls-1" cx="96.84" cy="46.98" r="2.92"/>
            </g>
        </g>
    </g>
</svg>