<?xml version="1.0" encoding="UTF-8"?>
<!-- SPDX-FileCopyrightText : © 2025 TU Wien <vadl@tuwien.ac.at> -->
<!-- SPDX-License-Identifier: GPL-3.0-or-later -->
<!-- -->
<!-- This program is free software: you can redistribute it and/or modify -->
<!-- it under the terms of the GNU General Public License as published by -->
<!-- the Free Software Foundation, either version 3 of the License, or -->
<!-- (at your option) any later version. -->
<!-- -->
<!-- This program is distributed in the hope that it will be useful, -->
<!-- but WITHOUT ANY WARRANTY; without even the implied warranty of -->
<!-- MERCHANTABILITY or FITNESS FOR A PARTICULAR PURPOSE.  See the -->
<!-- GNU General Public License for more details. -->
<!-- -->
<!-- You should have received a copy of the GNU General Public License -->
<!-- along with this program.  If not, see <https://www.gnu.org/licenses/>. -->

<svg id="Layer_2" data-name="Layer 2" xmlns="http://www.w3.org/2000/svg" viewBox="0 0 200 200">
    <defs>
        <style>
            .cls-1 {
            fill: #632c83;
            }

            .cls-2 {
            fill: #fff;
            }
        </style>
    </defs>
    <g id="Layer_1-2" data-name="Layer 1">
        <g>
            <rect class="cls-2" width="200" height="200"/>
            <g>
                <rect class="cls-1" x="153.29" y="40.77" width="22" height="22" rx="1.12" ry="1.12"
                      transform="translate(-7.8 59.4) rotate(-20.03)"/>
                <rect class="cls-1" x="24.66" y="40.77" width="22" height="22" rx="1.12" ry="1.12"
                      transform="translate(-19.93 81.13) rotate(-83.29)"/>
                <rect class="cls-1" x="31.93" y="126.81" width="22" height="22" rx="1.12" ry="1.12"
                      transform="translate(-16.86 6.43) rotate(-7.17)"/>
                <rect class="cls-1" x="146.43" y="128.45" width="22" height="22" rx="1.12" ry="1.12"
                      transform="translate(-5.64 272.25) rotate(-80.69)"/>
                <circle class="cls-1" cx="88.53" cy="83.83" r="2.94"/>
                <path class="cls-1"
                      d="M172.39,68.39c-.31-.9-3.39-.71-4.31-.65-17.79,1.12-10.2,25.7-20.28,34.66-3.38,3-9.2,4.85-13.56,3.16-3.62-1.4-2.61-4.33-1.95-7.46,1.23-5.85,3.59-11.41,4.86-17.25,2.38-10.98,1.36-20.61-5.82-29.54-15.44-19.2-44.84-19.1-60.48-.14-8.14,9.87-8.63,19.87-5.53,31.92,1.4,5.43,4.39,12.61,4.71,18.06.13,2.17.27,3.3-1.87,4.24-5.3,2.33-12.91-2.02-15.79-6.54-4.83-7.59-3.66-25.85-12.09-29.81-2.28-1.07-6.28-1.53-8.78-1.3-.57.05-.98.17-1.3.67-.95,1.46,1.16,2.66,1.97,3.62,8.85,10.43-.52,27.63,9.73,39.43,5.91,6.81,19.1,9.41,27.69,8.34,1.16-.15,3.41-.88,4.3-.86,2.69.07,2.02,3.31,1.71,5.1-1.49,8.8-7.71,24.38-16.12,28.59-4.98,2.49-14.66.75-17.24.66-2.59-.08-1.86,2.95-.65,4.85,8.64,13.47,25.77,10.65,36.12.84,7.52-7.12,9.98-14.07,14.68-22.77,2.29-4.25,6.5-6.99,11.54-5.6,4.28,1.18,5,5.45,6.71,8.96,4.33,8.85,11.57,20.2,20.43,24.94,6.79,3.63,14.87,4.2,21.44-.18,1.9-1.27,7.05-6.01,7.27-8.25.29-2.97-2.33-1.99-5.18-2.03-7.38-.12-15.74-1.69-20.8-7.43-4.63-5.25-8-15.93-8.49-22.85-.11-1.55-.27-4.78,1.9-4.88,15.96,4.4,35.45-.51,38.64-18.92,1.67-9.61-2.19-19.44,4.5-27.83.95-1.19,2.65-2.01,2.07-3.73ZM85.27,92.99c-4.52,0-8.18-4.31-8.18-9.62s3.66-9.62,8.18-9.62,8.18,4.31,8.18,9.62-3.66,9.62-8.18,9.62ZM117.29,93.08c-4.49,0-8.13-4.28-8.13-9.57s3.64-9.57,8.13-9.57,8.13,4.28,8.13,9.57-3.64,9.57-8.13,9.57Z"/>
                <circle class="cls-1" cx="120.53" cy="83.96" r="2.92"/>
            </g>
        </g>
    </g>
</svg>