<?xml version="1.0" encoding="UTF-8"?>
<!-- SPDX-FileCopyrightText : © 2025 TU Wien <vadl@tuwien.ac.at> -->
<!-- SPDX-License-Identifier: GPL-3.0-or-later -->
<!-- -->
<!-- This program is free software: you can redistribute it and/or modify -->
<!-- it under the terms of the GNU General Public License as published by -->
<!-- the Free Software Foundation, either version 3 of the License, or -->
<!-- (at your option) any later version. -->
<!-- -->
<!-- This program is distributed in the hope that it will be useful, -->
<!-- but WITHOUT ANY WARRANTY; without even the implied warranty of -->
<!-- MERCHANTABILITY or FITNESS FOR A PARTICULAR PURPOSE.  See the -->
<!-- GNU General Public License for more details. -->
<!-- -->
<!-- You should have received a copy of the GNU General Public License -->
<!-- along with this program.  If not, see <https://www.gnu.org/licenses/>. -->

<svg id="Layer_2" data-name="Layer 2" xmlns="http://www.w3.org/2000/svg" viewBox="0 0 200.39 200.39">
    <defs>
        <style>
            .cls-1 {
            fill: #632c83;
            }

            .cls-2 {
            fill: #fff;
            }
        </style>
    </defs>
    <g id="Layer_1-2" data-name="Layer 1">
        <g>
            <circle class="cls-2" cx="100.2" cy="100.2" r="100.2"/>
            <g>
                <rect class="cls-1" x="153.59" y="40.85" width="22.04" height="22.04" rx="1.12" ry="1.12"
                      transform="translate(-7.81 59.52) rotate(-20.03)"/>
                <rect class="cls-1" x="24.71" y="40.85" width="22.04" height="22.04" rx="1.12" ry="1.12"
                      transform="translate(-19.97 81.29) rotate(-83.29)"/>
                <rect class="cls-1" x="31.99" y="127.06" width="22.04" height="22.04" rx="1.12" ry="1.12"
                      transform="translate(-16.89 6.45) rotate(-7.17)"/>
                <rect class="cls-1" x="146.72" y="128.7" width="22.04" height="22.04" rx="1.12" ry="1.12"
                      transform="translate(-5.65 272.79) rotate(-80.69)"/>
                <circle class="cls-1" cx="88.71" cy="83.99" r="2.95"/>
                <path class="cls-1"
                      d="M172.73,68.52c-.31-.91-3.4-.71-4.31-.66-17.82,1.12-10.22,25.76-20.32,34.73-3.39,3.01-9.22,4.86-13.59,3.17-3.62-1.4-2.62-4.34-1.96-7.48,1.23-5.86,3.6-11.43,4.87-17.28,2.39-11,1.36-20.65-5.83-29.6-15.47-19.24-44.93-19.14-60.6-.14-8.15,9.89-8.65,19.91-5.54,31.98,1.4,5.45,4.4,12.63,4.72,18.09.13,2.17.27,3.31-1.88,4.25-5.31,2.33-12.94-2.03-15.82-6.55-4.84-7.6-3.66-25.91-12.11-29.87-2.29-1.07-6.3-1.53-8.8-1.3-.57.05-.98.17-1.31.68-.95,1.47,1.16,2.67,1.98,3.63,8.87,10.45-.52,27.68,9.75,39.51,5.92,6.82,19.13,9.43,27.74,8.35,1.17-.15,3.41-.88,4.3-.86,2.69.07,2.02,3.31,1.72,5.11-1.49,8.82-7.72,24.43-16.15,28.65-4.99,2.49-14.69.75-17.28.66-2.59-.08-1.87,2.96-.65,4.86,8.66,13.5,25.82,10.67,36.19.84,7.53-7.13,10-14.1,14.7-22.82,2.3-4.26,6.51-7,11.56-5.61,4.29,1.18,5.01,5.46,6.73,8.98,4.34,8.86,11.59,20.24,20.47,24.99,6.81,3.64,14.9,4.21,21.48-.18,1.91-1.27,7.06-6.02,7.28-8.27.29-2.98-2.33-1.99-5.19-2.04-7.4-.12-15.77-1.69-20.84-7.44-4.64-5.26-8.01-15.96-8.51-22.9-.11-1.55-.28-4.79,1.9-4.88,15.99,4.41,35.52-.51,38.72-18.96,1.67-9.63-2.2-19.48,4.51-27.89.95-1.19,2.65-2.02,2.07-3.74ZM85.43,93.17c-4.52,0-8.19-4.31-8.19-9.64s3.67-9.64,8.19-9.64,8.19,4.31,8.19,9.64-3.67,9.64-8.19,9.64ZM117.52,93.26c-4.5,0-8.15-4.29-8.15-9.59s3.65-9.59,8.15-9.59,8.15,4.29,8.15,9.59-3.65,9.59-8.15,9.59Z"/>
                <circle class="cls-1" cx="120.77" cy="84.13" r="2.93"/>
            </g>
        </g>
    </g>
</svg>